2.6Hz3min_grf.mot
version=1
nRows=30
nColumns 19
inDegrees=yes
endheader
time	1_ground_force_vx	1_ground_force_vy	1_ground_force_vz	1_ground_force_px	1_ground_force_py	1_ground_force_pz	1_ground_torque_x	1_ground_torque_y	1_ground_torque_z	2_ground_force_vx	2_ground_force_vy	2_ground_force_vz	2_ground_force_px	2_ground_force_py	2_ground_force_pz	2_ground_torque_x	2_ground_torque_y	2_ground_torque_z
            3.747500	          -45.460420	          143.748694	          -19.264488	           -0.179520	            0.006093	           -0.372630	           -0.140235	            0.443431	           -0.059426	          -40.095844	          118.155311	           30.942633	           -0.189067	            0.005923	           -0.732002	            0.776993	           -2.289661	           -0.599619
            3.748000	          -44.865771	          148.436503	          -19.429294	           -0.179991	            0.006090	           -0.372082	           -0.151310	            0.500604	           -0.065526	          -43.285336	          119.246355	           31.604924	           -0.186807	            0.005934	           -0.732625	            0.738947	           -2.035718	           -0.539545
            3.748500	          -44.453400	          151.500509	          -19.279610	           -0.180953	            0.006088	           -0.371632	           -0.109575	            0.373439	           -0.047523	          -45.401539	          121.448356	           31.660633	           -0.184819	            0.005942	           -0.732902	            0.778570	           -2.082662	           -0.542934
            3.749000	          -43.674806	          154.925904	          -19.312713	           -0.181695	            0.006083	           -0.370512	           -0.051698	            0.183387	           -0.022861	          -46.770054	          124.204830	           31.905707	           -0.183577	            0.005944	           -0.732328	            0.828262	           -2.199572	           -0.565026
            3.749500	          -42.299523	          156.187637	          -19.219004	           -0.181195	            0.006085	           -0.370985	           -0.030715	            0.113413	           -0.013956	          -48.421864	          127.514417	           31.683591	           -0.184274	            0.005937	           -0.730896	            0.859118	           -2.262406	           -0.562142
            3.750000	          -39.871999	          160.516841	          -19.756754	           -0.181308	            0.006085	           -0.371037	           -0.047380	            0.190743	           -0.023477	          -50.825308	          131.374083	           31.369909	           -0.184426	            0.005940	           -0.732001	            0.904723	           -2.338544	           -0.558405
            3.750500	          -37.627844	          163.584544	          -20.391172	           -0.182065	            0.006084	           -0.370777	           -0.070095	            0.304733	           -0.037986	          -53.737707	          133.392415	           30.486738	           -0.182456	            0.005945	           -0.731248	            0.853799	           -2.119373	           -0.484381
            3.751000	          -35.291046	          165.749560	          -20.708690	           -0.182299	            0.006088	           -0.371685	           -0.081692	            0.383677	           -0.047937	          -56.467666	          136.881734	           30.406522	           -0.181532	            0.005955	           -0.733090	            0.827721	           -2.006457	           -0.445709
            3.751500	          -33.319173	          169.172826	          -20.194481	           -0.181835	            0.006089	           -0.371849	           -0.079192	            0.402087	           -0.047998	          -59.143244	          138.343772	           30.835267	           -0.180245	            0.005956	           -0.732066	            0.760281	           -1.778396	           -0.396384
            3.752000	          -31.667054	          170.071131	          -19.415162	           -0.181783	            0.006093	           -0.372881	           -0.055113	            0.295988	           -0.033790	          -60.744352	          140.728457	           31.829976	           -0.181316	            0.005950	           -0.731525	            0.741380	           -1.717580	           -0.388482
            3.752500	          -30.794969	          172.952798	          -18.762973	           -0.182632	            0.006091	           -0.372455	           -0.029452	            0.165411	           -0.017945	          -61.790688	          145.141784	           32.550105	           -0.180638	            0.005956	           -0.732684	            0.780546	           -1.833446	           -0.411176
            3.753000	          -29.694499	          176.016151	          -18.431572	           -0.182544	            0.006088	           -0.371756	           -0.016643	            0.098655	           -0.010331	          -62.410188	          148.084452	           32.983230	           -0.180086	            0.005957	           -0.732189	            0.757017	           -1.796220	           -0.400077
            3.753500	          -27.862643	          179.984316	          -18.877677	           -0.183106	            0.006084	           -0.370769	           -0.019246	            0.124321	           -0.013039	          -63.314853	          152.131649	           33.232705	           -0.179748	            0.005956	           -0.731784	            0.760493	           -1.827297	           -0.399168
            3.754000	          -25.893124	          181.969978	          -19.424338	           -0.183231	            0.006089	           -0.371982	           -0.032875	            0.231034	           -0.024662	          -64.735016	          156.178187	           33.153902	           -0.180660	            0.005955	           -0.732446	            0.769188	           -1.855725	           -0.393938
            3.754500	          -23.602952	          185.938428	          -19.917437	           -0.184017	            0.006086	           -0.371368	           -0.041722	            0.328679	           -0.035208	          -66.055343	          158.566535	           33.397642	           -0.180494	            0.005953	           -0.731675	            0.701370	           -1.683645	           -0.354613
            3.755000	          -21.632114	          188.822863	          -19.864106	           -0.183931	            0.006086	           -0.371350	           -0.037520	            0.327505	           -0.034453	          -66.640605	          165.008030	           33.890159	           -0.181058	            0.005955	           -0.732662	            0.688546	           -1.704900	           -0.350161
            3.755500	          -20.072580	          191.524790	          -19.306109	           -0.184243	            0.006090	           -0.372266	           -0.024851	            0.237118	           -0.023902	          -66.800701	          170.528777	           34.801564	           -0.182452	            0.005951	           -0.732975	            0.685999	           -1.751218	           -0.357389
            3.756000	          -18.833446	          194.586204	          -18.516490	           -0.183989	            0.006091	           -0.372355	           -0.021252	            0.219580	           -0.020895	          -66.488950	          175.130314	           35.756414	           -0.183493	            0.005948	           -0.733289	            0.681377	           -1.794732	           -0.366431
            3.756500	          -17.917064	          197.830966	          -18.458996	           -0.184851	            0.006091	           -0.372543	           -0.009256	            0.102198	           -0.009536	          -65.477969	          180.656660	           36.291896	           -0.184476	            0.005946	           -0.733689	            0.656453	           -1.811185	           -0.363847
            3.757000	          -16.634428	          201.256852	          -18.585063	           -0.185003	            0.006092	           -0.372741	           -0.013447	            0.162690	           -0.015024	          -64.142335	          187.104756	           36.877453	           -0.185650	            0.005943	           -0.733928	            0.655323	           -1.911594	           -0.376766
            3.757500	          -14.849811	          205.407633	          -19.580553	           -0.184510	            0.006090	           -0.372303	           -0.011143	            0.154135	           -0.014693	          -62.945612	          193.002737	           36.663320	           -0.186668	            0.005940	           -0.734268	            0.651590	           -1.997895	           -0.379526
            3.758000	          -12.698027	          208.476498	          -20.489878	           -0.184832	            0.006090	           -0.372225	           -0.014633	            0.240240	           -0.023612	          -61.606655	          198.530069	           37.245591	           -0.188471	            0.005933	           -0.733948	            0.606776	           -1.955362	           -0.366839
            3.758500	          -10.499232	          212.624606	          -20.844408	           -0.185787	            0.006089	           -0.372116	           -0.011091	            0.224618	           -0.022020	          -60.123868	          203.137509	           37.730661	           -0.189709	            0.005929	           -0.734323	            0.595107	           -2.010660	           -0.373459
            3.759000	           -8.894001	          215.507005	          -20.331608	           -0.185591	            0.006091	           -0.372532	           -0.008906	            0.215798	           -0.020359	          -58.407892	          208.111931	           38.827011	           -0.190136	            0.005929	           -0.734712	            0.576136	           -2.052817	           -0.382990
            3.759500	           -7.197184	          218.930217	          -19.816717	           -0.186117	            0.006094	           -0.373241	           -0.005809	            0.176702	           -0.015994	          -56.220824	          212.351953	           39.779749	           -0.191787	            0.005924	           -0.734798	            0.563981	           -2.130214	           -0.399052
            3.760000	           -6.142267	          222.894103	          -19.297913	           -0.186519	            0.006092	           -0.372887	           -0.003891	            0.141200	           -0.012225	          -53.428755	          217.699551	           40.595385	           -0.192589	            0.005922	           -0.735279	            0.555392	           -2.262987	           -0.421989
            3.760500	           -4.676276	          227.040890	          -19.375488	           -0.187320	            0.006090	           -0.372408	           -0.004284	            0.207987	           -0.017749	          -51.330415	          220.468893	           40.745129	           -0.193516	            0.005919	           -0.735176	            0.530685	           -2.279343	           -0.421248
            3.761000	           -3.028343	          230.289137	          -20.099365	           -0.186669	            0.006092	           -0.372682	           -0.003186	            0.242249	           -0.021143	          -49.191836	          225.079538	           40.995279	           -0.194572	            0.005915	           -0.735148	            0.501988	           -2.296870	           -0.418345
            3.761500	           -0.602265	          233.179166	          -21.331137	           -0.186917	            0.006093	           -0.372974	           -0.000894	            0.346004	           -0.031652	          -47.471119	          228.585460	           40.772386	           -0.194848	            0.005913	           -0.734948	            0.479342	           -2.308155	           -0.411701
            3.762000	            1.228942	          236.968245	          -22.053151	           -0.186894	            0.006094	           -0.373195	            0.001251	            0.241134	           -0.022441	          -45.289094	          234.117677	           40.838089	           -0.196718	            0.005909	           -0.735624	            0.471936	           -2.439630	           -0.425555
